name ./resultDataOpenSim/trcMotMarkerGrf/sub06/grf-04-07.mot
datacolumns 19
datarows 15
range 1.66000000 1.71600000
endheader

                time	     ground_force_vx	     ground_force_vy	     ground_force_vz	     ground_force_px	     ground_force_py	     ground_force_pz	   l_ground_force_vx	   l_ground_force_vy	   l_ground_force_vz	   l_ground_force_px	   l_ground_force_py	   l_ground_force_pz	     ground_torque_x	     ground_torque_y	     ground_torque_z	   l_ground_torque_x	   l_ground_torque_y	   l_ground_torque_z	
          1.66000000	        120.80378239	        717.14526309	        -37.23689075	          0.86045109	          0.00000000	          0.11417237	          0.00000000	          0.00000000	          0.00000000	          0.00000000	          0.00000000	          0.00000000	          0.00000000	          4.62385218	          0.00000000	          0.00000000	          0.00000000	          0.00000000	
          1.66400000	        126.69033203	        730.97402793	        -37.05207272	          0.86083499	          0.00000000	          0.11391002	          0.00000000	          0.00000000	          0.00000000	          0.00000000	          0.00000000	          0.00000000	          0.00000000	          4.69105243	          0.00000000	          0.00000000	          0.00000000	          0.00000000	
          1.66800000	        132.85164267	        743.42689363	        -36.86549180	          0.86120079	          0.00000000	          0.11365901	          0.00000000	          0.00000000	          0.00000000	          0.00000000	          0.00000000	          0.00000000	          0.00000000	          4.73760486	          0.00000000	          0.00000000	          0.00000000	          0.00000000	
          1.67200000	        139.24420588	        754.33092622	        -36.85408986	          0.86154814	          0.00000000	          0.11342015	          0.00000000	          0.00000000	          0.00000000	          0.00000000	          0.00000000	          0.00000000	          0.00000000	          4.77657700	          0.00000000	          0.00000000	          0.00000000	          0.00000000	
          1.67600000	        145.77671374	        763.52522928	        -37.16141678	          0.86188479	          0.00000000	          0.11320056	          0.00000000	          0.00000000	          0.00000000	          0.00000000	          0.00000000	          0.00000000	          0.00000000	          4.82086950	          0.00000000	          0.00000000	          0.00000000	          0.00000000	
          1.68000000	        152.31989909	        770.87652025	        -37.86801720	          0.86221902	          0.00000000	          0.11300640	          0.00000000	          0.00000000	          0.00000000	          0.00000000	          0.00000000	          0.00000000	          0.00000000	          4.88082784	          0.00000000	          0.00000000	          0.00000000	          0.00000000	
          1.68400000	        158.72652419	        776.29113308	        -38.96822247	          0.86256860	          0.00000000	          0.11283697	          0.00000000	          0.00000000	          0.00000000	          0.00000000	          0.00000000	          0.00000000	          0.00000000	          4.96257751	          0.00000000	          0.00000000	          0.00000000	          0.00000000	
          1.68800000	        164.85982072	        779.71489034	        -40.36266287	          0.86295314	          0.00000000	          0.11268498	          0.00000000	          0.00000000	          0.00000000	          0.00000000	          0.00000000	          0.00000000	          0.00000000	          5.06710900	          0.00000000	          0.00000000	          0.00000000	          0.00000000	
          1.69200000	        170.63049806	        781.12325597	        -41.87248022	          0.86337869	          0.00000000	          0.11254012	          0.00000000	          0.00000000	          0.00000000	          0.00000000	          0.00000000	          0.00000000	          0.00000000	          5.18987606	          0.00000000	          0.00000000	          0.00000000	          0.00000000	
          1.69600000	        176.04151500	        780.50860544	        -43.26924693	          0.86384838	          0.00000000	          0.11239233	          0.00000000	          0.00000000	          0.00000000	          0.00000000	          0.00000000	          0.00000000	          0.00000000	          5.32070189	          0.00000000	          0.00000000	          0.00000000	          0.00000000	
          1.70000000	        181.22277886	        777.86993894	        -44.31893195	          0.86435523	          0.00000000	          0.11223393	          0.00000000	          0.00000000	          0.00000000	          0.00000000	          0.00000000	          0.00000000	          0.00000000	          5.44412381	          0.00000000	          0.00000000	          0.00000000	          0.00000000	
          1.70400000	        186.41620241	        773.19857659	        -44.84825789	          0.86486833	          0.00000000	          0.11205592	          0.00000000	          0.00000000	          0.00000000	          0.00000000	          0.00000000	          0.00000000	          0.00000000	          5.54083025	          0.00000000	          0.00000000	          0.00000000	          0.00000000	
          1.70800000	        191.87593489	        766.46135997	        -44.80277835	          0.86532219	          0.00000000	          0.11185863	          0.00000000	          0.00000000	          0.00000000	          0.00000000	          0.00000000	          0.00000000	          0.00000000	          5.59098640	          0.00000000	          0.00000000	          0.00000000	          0.00000000	
          1.71200000	        197.72826849	        757.59834342	        -44.23451880	          0.86567965	          0.00000000	          0.11165210	          0.00000000	          0.00000000	          0.00000000	          0.00000000	          0.00000000	          0.00000000	          0.00000000	          5.57921045	          0.00000000	          0.00000000	          0.00000000	          0.00000000	
          1.71600000	        203.90960802	        746.53491905	        -43.24351307	          0.86595522	          0.00000000	          0.11143698	          0.00000000	          0.00000000	          0.00000000	          0.00000000	          0.00000000	          0.00000000	          0.00000000	          5.49920899	          0.00000000	          0.00000000	          0.00000000	          0.00000000	
